<svg width="153" height="118" viewBox="0 0 153 118" fill="none" xmlns="http://www.w3.org/2000/svg">
<rect width="153" height="118" fill="#D9D9D9"/>
<rect x="0.5" y="0.5" width="152" height="117" fill="white" stroke="black"/>
<path d="M29.625 71.875V62.5H23.375V59.375H29.625V50H23.375V56.25H17.125V50H20.25V46.875H32.75V50H35.875V59.375H32.75V62.5H35.875V71.875H32.75V75H20.25V71.875H17.125V65.625H23.375V71.875H29.625ZM76.5 81.25H70.25V40.625H76.5V59.375H79.625V40.625H85.875V81.25H79.625V62.5H76.5V81.25ZM51.5 71.875H54.625V46.875H42.125V43.75H60.875V71.875H57.75V75H54.625V78.125H45.25V75H51.5V71.875ZM95.25 78.125V71.875H126.5V68.75H95.25V65.625H101.5V59.375H92.125V56.25H98.375V53.125H92.125V43.75H98.375V40.625H110.875V43.75H117.125V53.125H110.875V56.25H126.5V40.625H132.75V75H101.5V78.125H132.75V81.25H98.375V78.125H95.25ZM107.75 43.75H101.5V46.875H98.375V50H101.5V53.125H107.75V50H110.875V46.875H107.75V43.75ZM117.125 62.5V59.375H107.75V65.625H126.5V62.5H117.125Z" fill="black"/>
</svg>
